<mxfile host="65bd71144e">
    <diagram id="QSgNR9Rp1mcAzF5DUS6Z" name="Page-1">
        <mxGraphModel dx="770" dy="508" grid="1" gridSize="10" guides="1" tooltips="1" connect="1" arrows="1" fold="1" page="1" pageScale="1" pageWidth="850" pageHeight="1100" math="0" shadow="0">
            <root>
                <mxCell id="0"/>
                <mxCell id="1" parent="0"/>
                <mxCell id="2" value="" style="rounded=0;whiteSpace=wrap;html=1;" vertex="1" parent="1">
                    <mxGeometry width="550" height="490" as="geometry"/>
                </mxCell>
                <mxCell id="5" value="Container" style="swimlane;fillColor=#76608a;fontColor=#ffffff;strokeColor=#432D57;" vertex="1" parent="1">
                    <mxGeometry x="30" y="10" width="490" height="400" as="geometry"/>
                </mxCell>
                <mxCell id="6" value="Trip Name" style="text;html=1;resizable=0;autosize=1;align=center;verticalAlign=middle;points=[];fillColor=none;strokeColor=none;rounded=0;fontSize=16;" vertex="1" parent="5">
                    <mxGeometry x="195" y="60" width="90" height="20" as="geometry"/>
                </mxCell>
                <mxCell id="7" value="&lt;ul&gt;&lt;li&gt;Starting Location&lt;/li&gt;&lt;li&gt;Ending Location&lt;/li&gt;&lt;li&gt;Known waypoints (multiple entries)&lt;/li&gt;&lt;li&gt;Start Date&lt;/li&gt;&lt;li&gt;End Date&lt;/li&gt;&lt;li&gt;Road Buddies (names)&lt;/li&gt;&lt;li&gt;Type of vehicle&lt;/li&gt;&lt;li&gt;Miles Per Gallon (optional)&lt;/li&gt;&lt;/ul&gt;" style="text;strokeColor=none;fillColor=none;html=1;whiteSpace=wrap;verticalAlign=middle;overflow=hidden;fontSize=16;" vertex="1" parent="5">
                    <mxGeometry x="150" y="80" width="190" height="310" as="geometry"/>
                </mxCell>
                <mxCell id="3" value="Road Buddy Up! Let's start planning your trip!" style="text;strokeColor=none;fillColor=none;html=1;fontSize=21;fontStyle=1;verticalAlign=middle;align=center;" vertex="1" parent="5">
                    <mxGeometry x="195" y="20" width="100" height="40" as="geometry"/>
                </mxCell>
            </root>
        </mxGraphModel>
    </diagram>
</mxfile>